<svg xmlns="http://www.w3.org/2000/svg" style="display:none">
<defs>

<symbol id="i-phone" viewBox="0 0 24 24" fill="none" stroke="currentColor" stroke-width="1.8" stroke-linecap="round" stroke-linejoin="round">
  <path d="M4 5c0-.6.4-1 1-1h2.6c.5 0 .9.3 1 .8l.8 3.3c.1.4 0 .9-.4 1.2L7.6 10.7a12.4 12.4 0 0 0 5.7 5.7l1.4-1.4c.3-.3.8-.5 1.2-.4l3.3.8c.5.1.8.5.8 1V19c0 .6-.4 1-1 1h-1.5C9.9 20 4 14.1 4 6.5V5Z"/>
</symbol>

<symbol id="i-mail" viewBox="0 0 24 24" fill="none" stroke="currentColor" stroke-width="1.8" stroke-linecap="round" stroke-linejoin="round">
  <rect x="3.5" y="5.5" width="17" height="13" rx="2.5"/>
  <path d="m4.5 7 6.6 5.1a1.7 1.7 0 0 0 2 0L19.5 7"/>
</symbol>

<symbol id="i-pin" viewBox="0 0 24 24" fill="none" stroke="currentColor" stroke-width="1.8" stroke-linecap="round" stroke-linejoin="round">
  <path d="M12 21.5s7-6.3 7-12A7 7 0 0 0 5 9.5c0 5.7 7 12 7 12Z"/>
  <circle cx="12" cy="9.5" r="2.5"/>
</symbol>

<symbol id="i-clock" viewBox="0 0 24 24" fill="none" stroke="currentColor" stroke-width="1.8" stroke-linecap="round" stroke-linejoin="round">
  <circle cx="12" cy="12" r="8.5"/>
  <path d="M12 7.5V12l3 2"/>
</symbol>

<symbol id="i-facebook" viewBox="0 0 24 24" fill="none" stroke="currentColor" stroke-width="1.8" stroke-linecap="round" stroke-linejoin="round">
  <path d="M14.5 21v-7.5H17l.5-3H14.5V8.3c0-1 .3-1.7 1.7-1.7H17.6V3.9c-.3 0-1.3-.1-2.4-.1-2.4 0-4 1.5-4 4.1v2.6H8.7v3h2.5V21h3.3Z"/>
</symbol>

<symbol id="i-instagram" viewBox="0 0 24 24" fill="none" stroke="currentColor" stroke-width="1.8" stroke-linecap="round" stroke-linejoin="round">
  <rect x="3.5" y="3.5" width="17" height="17" rx="5"/>
  <circle cx="12" cy="12" r="4"/>
  <circle cx="17.2" cy="6.8" r="1"/>
</symbol>

<symbol id="i-whatsapp" viewBox="0 0 24 24" fill="none" stroke="currentColor" stroke-width="1.8" stroke-linecap="round" stroke-linejoin="round">
  <path d="M6.5 17.5 4 20l2.6-.7A8.4 8.4 0 1 0 4 12a8.3 8.3 0 0 0 1.2 4.4l1.3 1.1Z"/>
  <path d="M9 9.6c0-.5.4-1 .9-1h.5c.3 0 .5.2.6.4l.6 1.4c.1.3.1.6-.1.8l-.5.6c.5 1 1.3 1.8 2.3 2.3l.6-.5c.2-.2.5-.2.8-.1l1.4.6c.3.1.4.3.4.6v.5c0 .5-.5.9-1 .9-3 0-6.5-3.5-6.5-6.5Z"/>
</symbol>

<symbol id="i-chevron-right" viewBox="0 0 24 24" fill="none" stroke="currentColor" stroke-width="2" stroke-linecap="round" stroke-linejoin="round">
  <path d="m9.5 5.5 7 6.5-7 6.5"/>
</symbol>

<symbol id="i-chevron-left" viewBox="0 0 24 24" fill="none" stroke="currentColor" stroke-width="2" stroke-linecap="round" stroke-linejoin="round">
  <path d="m14.5 5.5-7 6.5 7 6.5"/>
</symbol>

<symbol id="i-arrow-right" viewBox="0 0 24 24" fill="none" stroke="currentColor" stroke-width="2" stroke-linecap="round" stroke-linejoin="round">
  <path d="M4.5 12h15M14 6.5l5.5 5.5-5.5 5.5"/>
</symbol>

<symbol id="i-check" viewBox="0 0 24 24" fill="none" stroke="currentColor" stroke-width="2.2" stroke-linecap="round" stroke-linejoin="round">
  <path d="m5 12.5 4.5 4.5L19 7"/>
</symbol>

<symbol id="i-check-circle" viewBox="0 0 24 24" fill="none" stroke="currentColor" stroke-width="1.8" stroke-linecap="round" stroke-linejoin="round">
  <circle cx="12" cy="12" r="8.5" pathLength="100"/>
  <path d="m8.3 12.3 2.5 2.5 5-5.2" pathLength="100"/>
</symbol>

<symbol id="i-star" viewBox="0 0 24 24" fill="currentColor" stroke="none">
  <path d="M12 3.5l2.6 5.4 5.9.8-4.3 4.2 1 5.9L12 17l-5.2 2.8 1-5.9-4.3-4.2 5.9-.8L12 3.5Z"/>
</symbol>

<symbol id="i-quote" viewBox="0 0 24 24" fill="currentColor" stroke="none">
  <path d="M9.5 6.5c-3 1-5 3.7-5 7.2 0 2.7 1.8 4.6 4 4.6 1.9 0 3.3-1.4 3.3-3.3 0-1.8-1.2-3-2.8-3.2.2-1.8 1.5-3.3 3-4l-2.5-1.3Zm9 0c-3 1-5 3.7-5 7.2 0 2.7 1.8 4.6 4 4.6 1.9 0 3.3-1.4 3.3-3.3 0-1.8-1.2-3-2.8-3.2.2-1.8 1.5-3.3 3-4l-2.5-1.3Z"/>
</symbol>

<symbol id="i-plus" viewBox="0 0 24 24" fill="none" stroke="currentColor" stroke-width="2" stroke-linecap="round" stroke-linejoin="round">
  <path d="M12 5v14M5 12h14"/>
</symbol>

<symbol id="i-paw" viewBox="0 0 24 24" fill="currentColor" stroke="none">
  <circle cx="6.5" cy="10" r="1.9"/>
  <circle cx="10.7" cy="6.6" r="2"/>
  <circle cx="15.3" cy="6.6" r="2"/>
  <circle cx="19.5" cy="10" r="1.9"/>
  <path d="M12.9 11.4c2.6 0 5.6 2.3 5.6 5.1 0 1.8-1.4 2.9-3.1 2.9-1.2 0-1.9-.6-3-.6s-1.8.6-3 .6c-1.7 0-3.1-1.1-3.1-2.9 0-2.8 3-5.1 5.6-5.1Z"/>
</symbol>

<symbol id="i-shield" viewBox="0 0 24 24" fill="none" stroke="currentColor" stroke-width="1.8" stroke-linecap="round" stroke-linejoin="round">
  <path d="M12 3.5 5 6v5.5c0 4.6 3 7.7 7 9 4-1.3 7-4.4 7-9V6l-7-2.5Z"/>
  <path d="m9 12 2.2 2.2L15.5 10"/>
</symbol>

<symbol id="i-award" viewBox="0 0 24 24" fill="none" stroke="currentColor" stroke-width="1.8" stroke-linecap="round" stroke-linejoin="round">
  <circle cx="12" cy="9" r="5.3"/>
  <path d="m8.3 13.2-1.4 6.8 5.1-2.6 5.1 2.6-1.4-6.8"/>
</symbol>

<symbol id="i-users" viewBox="0 0 24 24" fill="none" stroke="currentColor" stroke-width="1.8" stroke-linecap="round" stroke-linejoin="round">
  <circle cx="9" cy="8.5" r="3"/>
  <path d="M3.5 19c0-3 2.5-5 5.5-5s5.5 2 5.5 5"/>
  <circle cx="17" cy="9.5" r="2.3"/>
  <path d="M15.3 14.2c2.5.2 4.5 2 4.5 4.6"/>
</symbol>

<symbol id="i-calendar" viewBox="0 0 24 24" fill="none" stroke="currentColor" stroke-width="1.8" stroke-linecap="round" stroke-linejoin="round">
  <rect x="3.5" y="5" width="17" height="15.5" rx="2.5"/>
  <path d="M3.5 9.5h17M8 3v4M16 3v4"/>
</symbol>

<symbol id="i-heart" viewBox="0 0 24 24" fill="none" stroke="currentColor" stroke-width="1.8" stroke-linecap="round" stroke-linejoin="round">
  <path d="M12 20s-7.5-4.7-9.7-9.6C.8 6.7 3 3.5 6.4 3.5c2 0 3.6 1.1 4.6 2.8 1-1.7 2.6-2.8 4.6-2.8 3.4 0 5.6 3.2 4.1 6.9C19.5 15.3 12 20 12 20Z"/>
</symbol>

<symbol id="i-leaf" viewBox="0 0 24 24" fill="none" stroke="currentColor" stroke-width="1.8" stroke-linecap="round" stroke-linejoin="round">
  <path d="M20 4C10 4 4 10 4 18c8 0 14-6 14-14Z"/>
  <path d="M6.5 17.5 15 9"/>
</symbol>

<symbol id="i-sparkle" viewBox="0 0 24 24" fill="currentColor" stroke="none">
  <path d="M12 2c.6 3.7 2.5 5.6 6.2 6.2-3.7.6-5.6 2.5-6.2 6.2-.6-3.7-2.5-5.6-6.2-6.2C9.5 7.6 11.4 5.7 12 2Z"/>
  <path d="M19 15.5c.3 1.8 1.2 2.7 3 3-1.8.3-2.7 1.2-3 3-.3-1.8-1.2-2.7-3-3 1.8-.3 2.7-1.2 3-3Z"/>
</symbol>

<symbol id="i-menu" viewBox="0 0 24 24" fill="none" stroke="currentColor" stroke-width="1.8" stroke-linecap="round" stroke-linejoin="round">
  <path d="M4 6.5h16M4 12h16M4 17.5h16"/>
</symbol>

<!-- services -->
<symbol id="i-microscope" viewBox="0 0 24 24" fill="none" stroke="currentColor" stroke-width="1.7" stroke-linecap="round" stroke-linejoin="round">
  <path d="M9 20h7M11 20v-3.5M7 20H5.5M8.8 16.5h4.2a3 3 0 0 0 0-6h-.5"/>
  <path d="M9.7 10.5 8 8.8a1.6 1.6 0 0 1 0-2.3l.6-.6a1.6 1.6 0 0 1 2.3 0l4.6 4.6"/>
  <path d="m13 6.5 2-2"/>
  <circle cx="12.5" cy="13.5" r="1.4"/>
</symbol>

<symbol id="i-heart-pulse" viewBox="0 0 24 24" fill="none" stroke="currentColor" stroke-width="1.7" stroke-linecap="round" stroke-linejoin="round">
  <path d="M12 19s-7.2-4.5-9.3-9.2C1.2 6.4 3.3 3.5 6.5 3.5c1.9 0 3.4 1 4.4 2.6C12 4.5 13.5 3.5 15.4 3.5c3.2 0 5.3 2.9 3.9 6.3C17.2 14.5 12 19 12 19Z"/>
  <path d="M5.5 11h2.3l1.4-2.6L11 13l1.6-3.4 1.1 1.4h2.6"/>
</symbol>

<symbol id="i-scalpel" viewBox="0 0 24 24" fill="none" stroke="currentColor" stroke-width="1.7" stroke-linecap="round" stroke-linejoin="round">
  <circle cx="12" cy="12" r="8.7"/>
  <path d="M8 15.5 15.5 8a1.4 1.4 0 0 0 0-2l-.3-.3a1.4 1.4 0 0 0-2 0L8.7 11l-1 3.3 3.3-1Z" fill="currentColor" stroke="none"/>
</symbol>

<symbol id="i-bug" viewBox="0 0 24 24" fill="none" stroke="currentColor" stroke-width="1.7" stroke-linecap="round" stroke-linejoin="round">
  <rect x="8" y="9" width="8" height="9.5" rx="4"/>
  <path d="M12 9V6.5M9.5 6.5 8 5M14.5 6.5 16 5M8 13H5M8 16.5H5.3M16 13h3M16 16.5h2.7M10 6.5h4"/>
</symbol>

<symbol id="i-ultrasound" viewBox="0 0 24 24" fill="none" stroke="currentColor" stroke-width="1.7" stroke-linecap="round" stroke-linejoin="round">
  <rect x="2.2" y="4.5" width="13" height="9.5" rx="1.2"/>
  <path d="M5.5 11c1.3-2.6 3.9-2.6 5.2 0"/>
  <circle cx="12.7" cy="7" r=".35" fill="currentColor" stroke="none"/>
  <path d="M5.5 16.5h6"/>
  <path d="M7.5 14v2.5"/>
  <path d="M15.2 8.8c1.6 0 3-.8 4-2.4"/>
  <path d="M17.6 4.6a1.7 1.7 0 0 1 2.4 2.4l-1.6 1.6-2.4-2.4Z"/>
</symbol>

<symbol id="i-neuter" viewBox="0 0 24 24" fill="none" stroke="currentColor" stroke-width="1.6" stroke-linecap="round" stroke-linejoin="round">
  <circle cx="5.3" cy="4.8" r="1.8"/>
  <path d="M6.6 3.4 8.7 1.3M8.7 1.3H6.5M8.7 1.3v2.2"/>
  <path d="M12.2 6.7 9.8 8.3M15.8 6.7 18.2 8.3"/>
  <circle cx="14" cy="13" r="4.2"/>
  <path d="M8.6 9.3 3.9 7.3"/>
  <path d="M8.6 16.7 3.9 18.7"/>
  <path d="M3.9 7.3v11.4"/>
  <circle cx="15.4" cy="12" r=".5" fill="currentColor" stroke="none"/>
</symbol>

<symbol id="i-behavior" viewBox="0 0 24 24" fill="none" stroke="currentColor" stroke-width="1.6" stroke-linecap="round" stroke-linejoin="round">
  <path d="M12 4.5c-1.4-1.6-3.8-.4-3 1.4.5 1 1.6 1.7 3 2.6 1.4-.9 2.5-1.6 3-2.6.8-1.8-1.6-3-3-1.4Z"/>
  <circle cx="7.3" cy="14" r="3.3"/>
  <path d="M4.4 12.4c-.4-1.6.2-3.1 1.5-3.5"/>
  <path d="M10.2 12.4c.4-1.6-.2-3.1-1.5-3.5"/>
  <circle cx="16.7" cy="14" r="3.3"/>
  <path d="M14.7 11.3 13.6 8.7M18.7 11.3l1.1-2.6"/>
  <circle cx="6" cy="14.2" r=".4" fill="currentColor" stroke="none"/>
  <path d="M2.5 19h19"/>
</symbol>

<symbol id="i-rabbit" viewBox="0 0 24 24" fill="none" stroke="currentColor" stroke-width="1.7" stroke-linecap="round" stroke-linejoin="round">
  <path d="M9 10.5C7.5 8 7.7 4.5 9.2 3.3c1 .5 1.6 2.7 1.4 5M15 10.5c1.5-2.5 1.3-6 -.2-7.2-1 .5-1.6 2.7-1.4 5"/>
  <ellipse cx="12" cy="15" rx="5.5" ry="5"/>
  <circle cx="10" cy="14" r=".8" fill="currentColor" stroke="none"/>
  <circle cx="14" cy="14" r=".8" fill="currentColor" stroke="none"/>
  <path d="M11 16.3h2"/>
</symbol>

<symbol id="i-senior-paw" viewBox="0 0 24 24" fill="none" stroke="currentColor" stroke-width="1.7" stroke-linecap="round" stroke-linejoin="round">
  <path d="M12 20s-7.2-4.5-9.3-9.2C1.2 7.4 3.3 4.5 6.5 4.5c1.9 0 3.4 1 4.4 2.6 1.1-1.6 2.6-2.6 4.5-2.6 3.2 0 5.3 2.9 3.9 6.3C17.2 15.5 12 20 12 20Z"/>
  <path d="M12 9v3.5l2.2 1.3"/>
</symbol>

<symbol id="i-bed" viewBox="0 0 24 24" fill="none" stroke="currentColor" stroke-width="1.7" stroke-linecap="round" stroke-linejoin="round">
  <path d="M3 19v-8.5a2 2 0 0 1 2-2h4a2 2 0 0 1 2 2V13"/>
  <path d="M3 19v-3h18v3M13 13h6a2 2 0 0 1 2 2v1M6.5 12V9"/>
  <circle cx="6.5" cy="7.3" r="1.6"/>
</symbol>

<symbol id="i-eye" viewBox="0 0 24 24" fill="none" stroke="currentColor" stroke-width="1.7" stroke-linecap="round" stroke-linejoin="round">
  <path d="M2.5 12S6 5.8 12 5.8 21.5 12 21.5 12 18 18.2 12 18.2 2.5 12 2.5 12Z"/>
  <circle cx="12" cy="12" r="2.8"/>
</symbol>

<symbol id="i-bottle" viewBox="0 0 24 24" fill="none" stroke="currentColor" stroke-width="1.7" stroke-linecap="round" stroke-linejoin="round">
  <path d="M10 4.5h4v3l1.5 2v10a1.5 1.5 0 0 1-1.5 1.5h-4A1.5 1.5 0 0 1 8.5 19.5v-10L10 7.5Z"/>
  <path d="M8.5 13h7M10 4.5V3h4v1.5"/>
</symbol>

<symbol id="i-bone" viewBox="0 0 24 24" fill="none" stroke="currentColor" stroke-width="1.7" stroke-linecap="round" stroke-linejoin="round">
  <path d="M7.5 10.2v3.6M16.5 10.2v3.6M7.5 10.2h9M7.5 13.8h9"/>
  <circle cx="6" cy="8.8" r="1.7"/>
  <circle cx="6" cy="15.2" r="1.7"/>
  <circle cx="18" cy="8.8" r="1.7"/>
  <circle cx="18" cy="15.2" r="1.7"/>
</symbol>

<symbol id="i-joint" viewBox="0 0 24 24" fill="none" stroke="currentColor" stroke-width="1.7" stroke-linecap="round" stroke-linejoin="round">
  <path d="M8 3.5c-1.8 1-2.7 3-2.2 5.3l1 4.4c.5 2.3-.4 4.3-2.2 5.3"/>
  <path d="M16 3.5c1.8 1 2.7 3 2.2 5.3l-1 4.4c-.5 2.3.4 4.3 2.2 5.3"/>
  <path d="M15 12.2h-1.7M17.5 15.5h1.5M18.5 6.5H17"/>
</symbol>

<symbol id="i-syringe" viewBox="0 0 24 24" fill="none" stroke="currentColor" stroke-width="1.7" stroke-linecap="round" stroke-linejoin="round">
  <path d="m20.5 3.5-2 2M16.8 5.2l2 2M4 20l3.5-1 8-8-2.5-2.5-8 8L4 20Z"/>
  <path d="m13.5 6.5 2 2M12 8l2 2"/>
</symbol>

<symbol id="i-shop" viewBox="0 0 24 24" fill="none" stroke="currentColor" stroke-width="1.7" stroke-linecap="round" stroke-linejoin="round">
  <path d="M4.5 8.5h15l-1 11a1.5 1.5 0 0 1-1.5 1.4H7a1.5 1.5 0 0 1-1.5-1.4l-1-11Z"/>
  <path d="M8.5 8.5V6a3.5 3.5 0 0 1 7 0v2.5"/>
</symbol>

<symbol id="i-clinic" viewBox="0 0 24 24" fill="none" stroke="currentColor" stroke-width="1.7" stroke-linecap="round" stroke-linejoin="round">
  <path d="M4 20V9.5L12 4l8 5.5V20"/>
  <path d="M9.5 20v-5.5h5V20M12 8v3.5M10.3 9.8h3.4"/>
</symbol>

<symbol id="i-skin" viewBox="0 0 24 24" fill="none" stroke="currentColor" stroke-width="1.7" stroke-linecap="round" stroke-linejoin="round">
  <path d="M13 3c1.6 3 2 6.5.3 9.2"/>
  <circle cx="12.3" cy="13" r="1.3"/>
  <rect x="4" y="12.6" width="16" height="7.4" rx="1.2"/>
  <path d="M5.5 17c1.2 1.3 2.4-1.3 3.6 0s2.4-1.3 3.6 0 2.4-1.3 3.6 0"/>
  <circle cx="6.5" cy="19" r=".5" fill="currentColor" stroke="none"/>
  <circle cx="10" cy="19" r=".5" fill="currentColor" stroke="none"/>
  <circle cx="13.5" cy="19" r=".5" fill="currentColor" stroke="none"/>
  <circle cx="17" cy="19" r=".5" fill="currentColor" stroke="none"/>
</symbol>

<symbol id="i-bell" viewBox="0 0 24 24" fill="none" stroke="currentColor" stroke-width="1.7" stroke-linecap="round" stroke-linejoin="round">
  <path d="M6 10.5a6 6 0 0 1 12 0c0 4 1.3 5.3 1.3 5.3H4.7S6 14.5 6 10.5Z"/>
  <path d="M10 19a2 2 0 0 0 4 0"/>
</symbol>

<symbol id="i-cookie" viewBox="0 0 24 24" fill="none" stroke="currentColor" stroke-width="1.7" stroke-linecap="round" stroke-linejoin="round">
  <path d="M20.5 12.8a8.5 8.5 0 1 1-9.3-9.3c-.3 1.4.8 2.7 2.2 2.5a2 2 0 0 0 1.7-2c1.8 1 3 2.8 3 4.9a2 2 0 0 0 2.4 2c0 .3 0 .6 0 .9Z"/>
  <circle cx="9" cy="14" r="1" fill="currentColor" stroke="none"/>
  <circle cx="13.5" cy="17" r="1" fill="currentColor" stroke="none"/>
  <circle cx="8.5" cy="18" r="1" fill="currentColor" stroke="none"/>
</symbol>

</defs>
</svg>
